<svg width="92" height="92" viewBox="0 0 92 92"  xmlns="http://www.w3.org/2000/svg">
<path d="M2.6082 0.464451C1.68945 0.923826 0.713281 1.93828 0.330469 2.85703C0.100781 3.39297 0.0625 8.98203 0.0625 36.8508C0.0625 68.7199 0.0816406 70.2512 0.426172 70.9785C0.866406 71.9547 2.12969 73.1031 3.06758 73.352C3.56523 73.5051 11.968 73.5625 29.4816 73.5625H55.1684L55.2258 80.0129L55.2832 86.4824L55.8383 87.6309C56.5273 89.0281 58.1352 90.6168 59.5898 91.325L60.6426 91.8418H73.5625H86.4824L87.6117 91.2676C89.0473 90.5594 90.6168 88.9898 91.3059 87.5734L91.8418 86.4824L91.8992 45.1578C91.9184 16.4469 91.8801 3.62265 91.7461 3.08672C91.4781 2.12969 90.4254 0.962108 89.3727 0.464451L88.5688 0.0624982H45.9809H3.41211L2.6082 0.464451ZM87.8988 3.41211C88.741 3.8332 88.875 4.5414 88.875 8.59922V12.3125H46H3.125V8.42695C3.14414 4.29258 3.2207 3.89062 4.10117 3.39297C4.48398 3.18242 11.968 3.14414 45.9617 3.125C82.0227 3.125 87.4395 3.16328 87.8988 3.41211ZM88.875 25.2324C88.875 30.6492 88.8176 35.0898 88.7602 35.0898C88.7027 35.0898 88.4156 34.9176 88.1285 34.7262C86.7504 33.7309 86.6738 33.7309 73.1797 33.7883L60.6426 33.8457L59.4941 34.4008C58.0203 35.1281 56.5656 36.5828 55.8383 38.0566L55.2832 39.2051L55.2258 54.843L55.1875 70.5H29.9027C2.09141 70.5 3.77578 70.5766 3.33555 69.3324C3.18242 68.8922 3.125 61.0828 3.125 42.057V15.375H46H88.875V25.2324ZM85.4488 37.1187C87.4395 37.6738 88.5496 39.1859 88.7984 41.6551L88.9324 42.9375H73.5625H58.1926L58.3074 41.6934C58.4414 40.3727 58.9965 38.8414 59.5516 38.3437C60.2406 37.7121 61.0637 37.2336 61.791 37.0422C62.2695 36.9273 66.6336 36.8508 73.4477 36.8316C82.9223 36.8125 84.4918 36.8508 85.4488 37.1187ZM88.875 62.8437V79.6875H73.5625H58.25V62.8437V46H73.5625H88.875V62.8437ZM88.7984 84.0324C88.5688 86.2719 87.7457 87.5734 86.0996 88.3391L85.1426 88.7793H73.5625C62.1738 88.7793 61.9633 88.7793 61.102 88.3773C59.3984 87.5734 58.518 86.2145 58.3074 83.9941L58.1926 82.75H73.5625H88.9324L88.7984 84.0324Z" />
<path d="M6.57034 6.57031C6.01526 7.12539 6.05354 8.29297 6.62776 8.82891C7.01057 9.19258 7.29768 9.25 8.50354 9.25C9.76682 9.25 9.99651 9.19258 10.3602 8.80977C10.9344 8.19727 10.9153 7.14453 10.341 6.60859C9.95823 6.24492 9.67112 6.1875 8.42698 6.1875C7.20198 6.1875 6.89573 6.24492 6.57034 6.57031Z" />
<path d="M12.6953 6.57031C12.1403 7.12539 12.1785 8.29297 12.7528 8.82891C13.1356 9.19258 13.4227 9.25 14.6285 9.25C15.8918 9.25 16.1215 9.19258 16.4852 8.80977C17.0594 8.19727 17.0403 7.14453 16.466 6.60859C16.0832 6.24492 15.7961 6.1875 14.552 6.1875C13.327 6.1875 13.0207 6.24492 12.6953 6.57031Z"  />
<path d="M18.8203 6.57031C18.2653 7.12539 18.3035 8.29297 18.8778 8.82891C19.2606 9.19258 19.5477 9.25 20.7535 9.25C22.0168 9.25 22.2465 9.19258 22.6102 8.80977C23.1844 8.19727 23.1653 7.14453 22.591 6.60859C22.2082 6.24492 21.9211 6.1875 20.677 6.1875C19.452 6.1875 19.1457 6.24492 18.8203 6.57031Z"  />
<path d="M29.5391 6.57031C28.984 7.12539 29.0223 8.29297 29.5965 8.82891L30.0367 9.25H57.5035H84.9895L85.3914 8.80977C85.9657 8.19727 85.9465 7.14453 85.3723 6.60859L84.9321 6.1875H57.427C30.1707 6.1875 29.9219 6.1875 29.5391 6.57031Z"  />
<path d="M6.57031 24.9453C6.1875 25.3281 6.1875 25.577 6.1875 42.8992V60.4895L6.62773 60.8914L7.06797 61.3125H29.1754H51.302L51.7039 60.8723L52.125 60.432V42.9184V25.3855L51.6848 24.9836L51.2445 24.5625H29.0988C7.20195 24.5625 6.95313 24.5625 6.57031 24.9453ZM49.0625 41.1574C49.0625 48.584 49.0242 54.6324 48.9859 54.5941C48.9285 54.5367 48.6797 54.2113 48.4309 53.8477C48.182 53.484 47.6652 52.7184 47.2824 52.1633C46.8996 51.6273 46.268 50.7277 45.9043 50.2109C45.5406 49.675 44.9281 48.8137 44.5645 48.2969C44.2008 47.7609 43.5691 46.8805 43.1863 46.3254C42.8035 45.7895 42.2676 45.0238 42.0188 44.6602C41.0809 43.2629 40.6789 42.9375 39.9133 42.9375C39.5305 42.9375 39.0711 43.0523 38.918 43.1863C38.7457 43.3203 37.6355 44.8133 36.4488 46.5359C35.243 48.2395 34.1902 49.6941 34.0945 49.7516C34.018 49.809 33.884 49.6941 33.8074 49.5027C33.7309 49.3113 33.482 48.8902 33.2332 48.5648C32.9844 48.2395 32.793 47.8949 32.793 47.8184C32.793 47.7418 32.5824 47.3973 32.3527 47.0719C32.1039 46.7465 31.8551 46.3828 31.8168 46.268C31.7785 46.1531 30.0559 43.3777 28.0078 40.1047C24.3711 34.2668 23.95 33.75 23.0313 33.75C22.0742 33.75 21.6914 34.2859 16.1789 43.0906C13.1164 48.0098 10.3027 52.5078 9.93906 53.082L9.26914 54.1348L9.25 40.8703V27.625H29.1563H49.0625V41.1574ZM24.5625 40.832C25.3473 42.0953 26.1895 43.4543 26.4383 43.8371C26.6871 44.2391 28.8117 47.627 31.1469 51.3594L35.4152 58.1543L29.2137 58.2117C25.8258 58.2309 20.2367 58.2309 16.8297 58.2117L10.6473 58.1543L12.9441 54.5176C14.1883 52.5078 15.375 50.6512 15.5473 50.3641C17.4422 47.2633 22.9547 38.5352 23.0313 38.5352C23.0887 38.5352 23.7777 39.5687 24.5625 40.832ZM42.9566 51.7039C44.5645 53.9816 46.2488 56.3934 46.7273 57.0633L47.5695 58.25L43.3969 58.2117L39.2434 58.1543L37.6355 55.532L36.0277 52.9098L36.5063 52.1824C36.7742 51.7805 37.3867 50.9 37.8652 50.2109C38.3629 49.5219 38.9754 48.6031 39.2625 48.1629C39.5305 47.7227 39.8176 47.3973 39.8941 47.4547C39.9707 47.493 41.3488 49.407 42.9566 51.7039Z"  />
<path d="M33.214 31.0896C32.1804 31.6064 31.1276 32.8314 30.8597 33.8267C30.7448 34.2669 30.6874 35.1474 30.7257 35.7982C30.8214 37.2337 31.4722 38.3056 32.7929 39.2052C33.9796 39.99 35.9128 40.124 37.2526 39.4923C38.2479 39.0329 39.205 38.0376 39.6069 37.0806C40.2768 35.4919 39.8175 33.329 38.5542 31.9509C37.3866 30.6685 34.8792 30.2665 33.214 31.0896ZM35.8554 34.0372C36.8698 34.554 36.8698 36.0087 35.8554 36.5255C35.3386 36.7935 35.2237 36.7935 34.7261 36.5447C33.6351 35.9704 33.6351 34.6115 34.7261 34.0181C35.3003 33.6927 35.2046 33.6927 35.8554 34.0372Z"  />
<path d="M70.8828 38.7266C70.3278 39.2816 70.366 40.4492 70.9403 40.9852C71.3422 41.368 71.591 41.4062 73.5817 41.4062C75.6489 41.4062 75.8211 41.368 76.2039 40.966C76.7782 40.3535 76.759 39.3008 76.1848 38.7648C75.7828 38.382 75.534 38.3437 73.5051 38.3437C71.5145 38.3437 71.2274 38.382 70.8828 38.7266Z"  />
<path d="M75.5148 50.9383C75.0938 51.3594 68.9688 72.6437 68.9688 73.6582C68.9688 74.577 69.5238 75.0938 70.5 75.0938C71.0168 75.0938 71.3613 74.9789 71.6102 74.7109C72.0504 74.2324 78.1563 53.0629 78.1563 52.0293C78.1563 51.1105 77.6012 50.5937 76.625 50.5937C76.1465 50.5937 75.7254 50.7277 75.5148 50.9383Z"  />
<path d="M63.2648 58.6902C60.0684 61.8867 59.7812 62.2312 59.7812 62.8437C59.7812 63.4562 60.0684 63.8199 63.284 67.0164C66.5379 70.2703 66.825 70.5 67.4758 70.5C68.3563 70.5 68.9688 69.8109 68.9688 68.8156C68.9688 68.2031 68.7391 67.8969 66.3848 65.5617C64.9684 64.1453 63.8008 62.9203 63.8008 62.8437C63.8008 62.7672 64.9684 61.5422 66.3848 60.1258C68.8539 57.6758 68.9688 57.5227 68.9688 56.7953C68.9688 55.8 68.3754 55.1875 67.4184 55.1875C66.825 55.1875 66.4422 55.4937 63.2648 58.6902Z"  />
<path d="M78.5774 55.6278C78.3094 55.915 78.1563 56.3169 78.1563 56.738C78.1563 57.3122 78.4434 57.6567 80.8743 60.1067L83.6114 62.8439L80.8551 65.6001C78.252 68.2224 78.0989 68.4138 78.118 69.0837C78.1563 70.2321 79.1325 70.9021 80.2044 70.481C80.4532 70.3853 82.1567 68.8349 83.9942 66.9974C87.3438 63.7052 87.3438 63.7052 87.3438 62.8439V61.9825L83.8794 58.5755C80.6446 55.3982 80.3766 55.1876 79.7067 55.1876C79.209 55.1876 78.8645 55.3216 78.5774 55.6278Z"  />
<path d="M70.8828 84.6641C70.3278 85.2191 70.366 86.3867 70.9403 86.9227C71.3422 87.3055 71.591 87.3438 73.5817 87.3438C75.6489 87.3438 75.8211 87.3055 76.2039 86.9035C76.7782 86.291 76.759 85.2383 76.1848 84.7023C75.7828 84.3195 75.534 84.2812 73.5051 84.2812C71.5145 84.2812 71.2274 84.3195 70.8828 84.6641Z"  />
</svg>
