<svg width="98" height="94" viewBox="0 0 98 94" xmlns="http://www.w3.org/2000/svg">
<path d="M6.33564 0.679718C4.24931 1.4262 2.27783 3.22542 1.24423 5.33089C-0.0764685 8.01057 9.40243e-05 5.80941 9.40243e-05 37.736C9.40243e-05 66.5809 9.40061e-05 66.6766 0.402047 67.9782C1.45478 71.4426 3.59853 73.7969 6.62275 74.8305C7.38837 75.0985 8.55595 75.1368 14.3747 75.1368H21.227L21.763 74.6774C22.2224 74.2754 22.2989 74.0649 22.2989 73.2418C22.2989 72.4379 22.2032 72.1891 21.763 71.7489L21.2462 71.2129L14.4895 71.1172C6.94814 71.0024 7.17783 71.0598 5.85712 69.5668C5.45517 69.1266 4.90009 68.2844 4.61298 67.691L4.11533 66.6192L4.05791 48.1868L4.01963 29.7735H45.5548H87.0899V39.4395V49.1055H86.2477C85.2524 49.1055 84.3145 49.4692 83.5872 50.1391C82.9364 50.7325 82.8981 50.7516 81.7688 50.2348C81.2712 50.0051 80.563 49.718 80.1993 49.584C79.5868 49.3735 79.5294 49.2778 79.4145 48.4164C79.1849 46.5598 78.1704 45.2391 76.486 44.6075C75.797 44.3395 75.127 44.3012 72.9067 44.3586C70.2653 44.416 70.1122 44.4352 69.2317 44.9711C68.0259 45.6793 67.1837 47.0957 67.1837 48.3973C67.1837 49.2012 67.1263 49.3352 66.6669 49.5266C66.3606 49.6414 65.595 49.9668 64.9442 50.2731C63.7958 50.7899 63.7575 50.7899 63.4321 50.4262C63.2599 50.2348 62.6856 49.852 62.1497 49.584C60.9438 48.9907 59.5466 48.9524 58.3599 49.4883C57.3837 49.9094 54.2063 53.0485 53.6704 54.0821C52.9431 55.5368 53.4981 58.427 54.6657 59.1735L55.0868 59.4606L54.4743 60.8387C54.1298 61.6043 53.7852 62.37 53.7278 62.5422C53.6321 62.791 53.4024 62.8868 52.8856 62.8868C51.986 62.8868 50.4165 63.6141 49.7274 64.3414C48.8852 65.2602 48.6173 66.3129 48.6173 68.8395V71.1172L43.0282 71.1364C39.9466 71.1364 37.2669 71.1746 37.0755 71.2129C35.9079 71.4235 35.2188 72.7059 35.6017 73.8926C36.0227 75.175 35.7356 75.1368 45.1337 75.1368C53.0388 75.1368 53.613 75.1559 53.7278 75.4621C53.7852 75.6535 54.0915 76.4 54.4169 77.1274C54.7614 77.9696 54.9145 78.5629 54.8188 78.6969C54.7231 78.8309 54.3977 79.3094 54.0724 79.7496C53.5938 80.4196 53.4981 80.7641 53.4407 81.9317C53.345 83.75 53.6513 84.3243 56.0247 86.6594C57.9005 88.4969 58.9149 89.1094 60.1782 89.1094C61.0395 89.1094 62.5325 88.5352 63.0876 87.961C63.7384 87.3102 63.8341 87.291 64.5997 87.693C64.9251 87.8653 65.6142 88.1524 66.131 88.3438L67.088 88.6692L67.2028 89.741C67.3559 91.1 68.1024 92.4016 69.136 93.0907C69.9016 93.5883 70.0356 93.6075 72.9641 93.6649C76.1606 93.7414 76.9454 93.6075 77.9216 92.8035C78.7063 92.1336 79.2806 91.0043 79.3763 89.875L79.472 88.8032L81.1755 88.0758L82.8981 87.3485L83.5298 87.9227C84.8696 89.0903 86.8985 89.3774 88.468 88.5926C89.3294 88.1524 92.2005 85.3578 92.7364 84.42C93.6743 82.793 93.5212 80.7641 92.3536 79.386L91.7028 78.6395L92.411 76.8785L93.1001 75.1368H93.9423C95.5118 75.1368 97.0813 74.084 97.6938 72.6102C98.1149 71.634 98.1341 66.4278 97.7321 65.509C97.1196 64.1309 95.6075 63.0782 93.9806 62.925L93.0427 62.8485L92.411 61.2981C92.0665 60.4368 91.7602 59.7094 91.7411 59.652C91.7028 59.5754 91.9134 59.2692 92.1813 58.9629C93.0809 57.9293 93.2915 57.3168 93.3106 55.8813C93.3106 54.7137 93.2341 54.4266 92.7556 53.6993C92.4493 53.2399 91.9708 52.6657 91.6645 52.3977L91.1095 51.9383V30.7688C91.1095 12.8149 91.052 9.36956 90.8223 8.24026C90.1524 5.04378 88.1809 2.38323 85.5778 1.10081L84.1231 0.392609L45.7462 0.354324C8.07744 0.31604 7.35009 0.31604 6.33564 0.679718ZM84.2763 5.06292C85.195 5.69456 86.2095 7.05354 86.7263 8.33597C86.9177 8.85276 86.9942 10.8434 87.0516 17.3703L87.1091 25.7539H45.5739H4.01963V17.5235C4.01963 9.36957 4.01963 9.31214 4.479 8.068C4.9958 6.61331 5.85712 5.56058 7.08212 4.83323L7.94345 4.31644L45.6505 4.37386L83.3575 4.41214L84.2763 5.06292ZM75.4333 50.0625C75.4907 50.9621 75.5864 51.8235 75.6821 51.9957C75.8544 52.3977 76.6774 52.7996 78.381 53.3164C79.6059 53.6993 80.3333 54.0055 82.0177 54.9243C82.7641 55.3262 83.8169 55.3071 84.4102 54.9243C84.6782 54.7328 85.2524 54.2543 85.7118 53.8141L86.5157 53.0485L87.9895 54.5032L89.4442 55.9578L88.6403 56.6852C87.6641 57.5657 87.0899 58.4653 87.0899 59.0969C87.0899 59.3649 87.4727 60.341 87.9321 61.2789C88.3915 62.2168 88.9274 63.461 89.0997 64.0352C89.9036 66.6766 90.0184 66.7723 92.2196 66.9063L93.8848 67.002L93.9423 69.05L93.9997 71.1172H92.5067C90.1907 71.1172 89.8845 71.4043 89.0806 74.0649C88.8891 74.6965 88.3723 75.9215 87.913 76.802C86.7645 79.0414 86.8028 79.4051 88.2766 80.9746L89.4442 82.2379L88.1235 83.5778C87.4153 84.3051 86.688 84.8985 86.5349 84.8985C86.3817 84.8985 85.7692 84.42 85.1567 83.8457C83.7595 82.5059 83.2235 82.4676 81.2712 83.5395C80.5247 83.9606 79.0891 84.5539 78.0747 84.8793C77.0602 85.2239 76.0649 85.6641 75.8735 85.8746C75.6056 86.1618 75.5099 86.6594 75.4524 87.9801L75.3759 89.7028L73.3278 89.6453L71.2989 89.5879L71.2032 87.9227C71.1266 86.5254 71.0309 86.2 70.6481 85.7789C70.3993 85.511 69.9208 85.243 69.5954 85.1664C68.6192 84.975 66.0161 83.9223 65.0208 83.3289C64.4274 82.9844 63.8341 82.793 63.3364 82.793C62.6474 82.793 62.4177 82.927 61.3649 83.9414L60.1782 85.0707L58.8001 83.6926C58.0345 82.927 57.422 82.2379 57.422 82.1422C57.422 82.0465 57.9005 81.4723 58.4747 80.8598C59.8911 79.3668 59.9102 78.9649 58.6661 76.5723C58.2067 75.6918 57.6325 74.352 57.4028 73.5672C56.8095 71.5192 56.4649 71.2512 54.4169 71.1172L52.7325 71.0215V69.0118V67.002L54.3786 66.9446C56.4841 66.868 56.8286 66.6 57.422 64.5903C57.6517 63.8055 58.2259 62.4082 58.6852 61.4895C59.872 59.0969 59.8528 58.6567 58.3599 57.1446L57.1923 55.9387L58.5895 54.5414C59.3743 53.7567 60.0825 53.125 60.1782 53.125C60.2739 53.125 60.6567 53.4696 61.0204 53.8907C61.6712 54.6563 62.877 55.4219 63.4321 55.4219C63.6044 55.4219 64.5614 55.0008 65.595 54.484C66.6286 53.9672 68.0833 53.3547 68.8298 53.1442C70.7438 52.5891 71.0884 52.168 71.1649 50.2922C71.2032 49.4883 71.2606 48.7035 71.2989 48.5696C71.3755 48.3973 71.8923 48.3399 73.347 48.3782L75.3185 48.4356L75.4333 50.0625Z"   />
<path d="M15.7719 8.87187C13.0157 9.84805 11.3696 12.2598 11.4079 15.2457C11.427 17.0258 12.0395 18.4422 13.3219 19.7055C14.7192 21.1027 15.638 21.4473 17.8966 21.4473C19.5426 21.4473 19.9446 21.3898 20.7485 20.9879C22.0309 20.3562 23.1602 19.1887 23.8493 17.8105C24.3278 16.7961 24.4044 16.4707 24.3852 15.0352C24.3852 13.6762 24.2895 13.2359 23.8684 12.3363C23.2176 10.9582 22.1266 9.84805 20.8442 9.17812C19.4852 8.48906 17.2266 8.33594 15.7719 8.87187ZM19.1598 12.9871C20.5954 13.9441 20.8059 15.6094 19.6192 16.7578C18.3368 18.002 16.461 17.6766 15.6954 16.0687C15.3508 15.3797 15.3126 15.1309 15.4848 14.5184C15.9442 12.8148 17.7626 12.0492 19.1598 12.9871Z"   />
<path d="M32.5774 8.83368C28.3856 10.3075 26.7969 15.4755 29.4575 18.9782C32.5391 23.0552 39.1809 22.079 40.8653 17.313C41.0376 16.8536 41.1715 15.82 41.1907 15.0161C41.1907 13.7528 41.1141 13.37 40.5973 12.3173C39.4489 9.90555 37.286 8.52743 34.6829 8.52743C33.9747 8.54657 33.0368 8.68055 32.5774 8.83368ZM36.0036 12.9872C36.8266 13.5423 37.1329 14.1356 37.1329 15.2075C37.1329 15.9157 37.0372 16.1454 36.3864 16.777C35.7547 17.4087 35.5251 17.5235 34.836 17.5235C33.8024 17.5235 32.8645 16.9684 32.4626 16.1071C32.0989 15.3224 32.0797 14.8438 32.4051 14.1356C33.0942 12.6044 34.6829 12.0876 36.0036 12.9872Z"   />
<path d="M55.5462 8.73789C53.7278 9.27383 51.9478 10.9391 51.2778 12.7191C50.7419 14.1738 50.8185 16.643 51.4692 17.8871C52.0817 19.0738 53.3259 20.3371 54.4552 20.9496L55.4122 21.4473H65.9396H76.4669L77.3474 21.007C78.4958 20.4328 79.8548 19.093 80.3716 18.0211C82.0177 14.6523 80.6587 10.7094 77.3282 9.1207L76.2755 8.62305L66.2267 8.58477C60.1974 8.56563 55.929 8.62305 55.5462 8.73789ZM76.2946 13.3508C77.4239 14.5949 77.1942 16.2602 75.7396 17.1598C75.1462 17.5234 74.7825 17.5234 65.7099 17.4852L56.2735 17.4277L55.6802 16.8152C54.4743 15.6285 54.838 13.4848 56.331 12.834C56.8286 12.6043 58.5704 12.566 66.2841 12.6043L75.6439 12.6426L76.2946 13.3508Z"   />
<path d="M70.8396 57.4317C68.9256 57.872 66.7435 59.0013 65.308 60.2837C64.4658 61.0493 63.1451 62.8868 62.5709 64.0927C60.3123 68.9353 61.633 74.7923 65.7865 78.2185C67.0115 79.2138 69.4807 80.4005 70.9736 80.6876C72.5623 81.013 75.5674 80.8407 77.0412 80.3431C79.8357 79.4243 82.2092 77.4911 83.7404 74.8688C84.506 73.529 85.176 70.8876 85.176 69.1075C85.176 63.7864 81.6924 59.1544 76.5627 57.6231C75.0697 57.1829 72.3326 57.0872 70.8396 57.4317ZM75.0506 61.4321C77.3283 61.9489 79.2615 63.5376 80.3525 65.7196C81.0224 67.1169 81.0607 67.2509 81.0607 69.0884C81.0416 70.7728 80.9842 71.1747 80.5248 72.1317C79.8166 73.6821 77.9982 75.5196 76.5435 76.1895C74.3232 77.1657 71.6053 77.0317 69.4615 75.8259C66.7053 74.2563 65.0783 70.8876 65.6334 67.9017C66.2459 64.6095 68.4662 62.236 71.6818 61.4321C72.9451 61.1259 73.749 61.1259 75.0506 61.4321Z"   />
<path d="M29.7637 40.9134C29.266 41.3727 29.2086 41.5641 27.1797 50.0626C26.8734 51.3833 26.3184 53.7184 25.9355 55.2688C25.5719 56.8192 25.2656 58.3505 25.2656 58.6567C25.2656 59.3458 26.1844 60.3985 26.8352 60.4177C28.7109 60.5134 29.0172 60.1114 29.9551 55.9962C30.491 53.6419 31.6012 49.029 32.5582 45.0477C32.9602 43.4399 33.1133 42.3872 33.0367 41.9661C32.7879 40.6263 30.8355 39.9946 29.7637 40.9134Z"   />
<path d="M17.6859 42.0043C17.3605 42.1574 15.6379 43.9183 14.0301 45.775C13.8387 46.0047 13.1688 46.7512 12.5371 47.4785C11.0633 49.1246 10.9293 49.3926 10.9102 50.5219C10.9102 51.4597 11.2355 52.0914 12.3457 53.2398C12.5562 53.4695 13.207 54.1969 13.7812 54.8668C14.3555 55.5367 15.2359 56.5129 15.7336 57.0488C16.2313 57.5656 16.6523 58.0633 16.6523 58.1398C16.6523 58.1972 16.9586 58.4461 17.3414 58.6758C18.1645 59.1926 19.1598 59.0969 19.8297 58.4652C20.557 57.7762 20.6527 56.4172 20.0402 55.7664C19.9062 55.6324 19.1215 54.7328 18.2793 53.7949C17.4563 52.8379 16.4801 51.766 16.1355 51.4023C15.791 51.0387 15.5039 50.6367 15.5039 50.5219C15.5039 50.3113 16.0207 49.6988 18.8344 46.5597C20.2699 44.9328 20.5762 44.3777 20.4039 43.5164C20.1934 42.3297 18.777 41.5449 17.6859 42.0043Z"   />
<path d="M39.2383 42.0044C38.6066 42.1766 37.8984 43.2677 37.8984 44.0524C37.8984 44.6649 38.109 44.9712 39.5254 46.5407C39.6402 46.6555 40.2719 47.3829 40.9609 48.1485C41.65 48.9333 42.3965 49.7563 42.6262 49.986L43.0473 50.4071L40.693 53.0677C39.4105 54.5223 38.243 55.9005 38.1281 56.1302C37.4199 57.4509 38.4344 59.0778 39.9656 59.0587C40.693 59.0395 41.1715 58.7333 42.0902 57.6423C42.5305 57.1255 43.009 56.6087 43.1238 56.4747C43.5449 56.0345 46.0715 53.2208 46.5691 52.6274C47.641 51.3641 47.775 49.9669 46.9328 48.7993C46.3394 47.9954 43.3726 44.6458 41.8223 43.038C40.8269 42.0235 40.157 41.7364 39.2383 42.0044Z"   />
<path d="M28.3856 71.2512C28.1559 71.2894 27.7539 71.5574 27.486 71.8254C26.7395 72.5719 26.7778 73.816 27.5625 74.6008C28.0985 75.1367 28.2324 75.175 29.1129 75.0984C30.3379 74.9836 30.8164 74.5051 30.9504 73.3758C31.0461 72.6293 30.9887 72.4379 30.5102 71.9211C29.9551 71.3469 29.1895 71.098 28.3856 71.2512Z"   />
</svg>
