<svg width="30" height="30" viewBox="0 0 30 30" fill="none" xmlns="http://www.w3.org/2000/svg">
<path fill-rule="evenodd" clip-rule="evenodd" d="M13.8162 6.75V5.71143C13.8163 5.70197 13.8163 5.69248 13.8162 5.68295V4.5H16.0662V5.69394C16.0661 5.70111 16.0661 5.70827 16.0662 5.7154V6.75H13.8162ZM17.5662 6.59239V6.875C17.5662 7.63421 16.9504 8.25 16.1912 8.25H13.6912C12.9319 8.25 12.3162 7.63421 12.3162 6.875V6.57987C8.57156 7.38706 5.70938 10.5631 5.38138 14.4625H5.875C6.63421 14.4625 7.25 15.0783 7.25 15.8375V18.3375C7.25 19.0967 6.63421 19.7125 5.875 19.7125H3.375C2.61579 19.7125 2 19.0967 2 18.3375V15.8375C2 15.0783 2.61579 14.4625 3.375 14.4625H3.87678C4.21611 9.73136 7.74057 5.88794 12.3162 5.05056V4.375C12.3162 3.61579 12.9319 3 13.6912 3H16.1912C16.9504 3 17.5662 3.61579 17.5662 4.375V5.0614C22.1155 5.91761 25.6162 9.7489 25.9544 14.4625H26.4564C27.2156 14.4625 27.8314 15.0783 27.8314 15.8375V18.3375C27.8314 19.0967 27.2156 19.7125 26.4564 19.7125H23.9564C23.1971 19.7125 22.5814 19.0967 22.5814 18.3375V15.8375C22.5814 15.0783 23.1971 14.4625 23.9564 14.4625H24.4497C24.1231 10.5811 21.2847 7.41705 17.5662 6.59239ZM25.228 15.9625H24.0814V18.2125H26.3314V15.9625H25.2344L25.2312 15.9625L25.228 15.9625ZM3.5 15.9625H4.59325L4.59998 15.9625L4.60671 15.9625H5.75V18.2125H3.5V15.9625ZM14.9174 11.2587C15.1029 11.2587 15.2726 11.3261 15.4036 11.4377C15.4328 11.4626 15.4603 11.4899 15.4857 11.5194C15.506 11.5429 15.5248 11.5676 15.542 11.5935L20.4973 18.8248C20.6505 19.0484 20.6712 19.3373 20.5513 19.5805L18.6511 23.4336V27.0087C18.6511 27.423 18.3153 27.7587 17.9011 27.7587H11.9336C11.5194 27.7587 11.1836 27.423 11.1836 27.0087V23.4336L9.28346 19.5805C9.16356 19.3373 9.1842 19.0484 9.33744 18.8248L14.2922 11.5942C14.3109 11.566 14.3315 11.5392 14.3538 11.5139C14.3744 11.4904 14.3964 11.4683 14.4196 11.4478C14.552 11.3302 14.7263 11.2587 14.9174 11.2587C14.9174 11.2587 14.9174 11.2587 14.9174 11.2587ZM14.1674 14.43L10.8229 19.3107L12.4 22.5087H17.4347L19.0118 19.3107L15.6674 14.43V19.5087C15.6674 19.923 15.3316 20.2587 14.9174 20.2587C14.5031 20.2587 14.1674 19.923 14.1674 19.5087V14.43ZM12.6836 26.2587V24.0087H17.1511V26.2587H12.6836Z" fill="black"/>
</svg>
