<svg width="32" height="33" viewBox="0 0 32 33" fill="none" xmlns="http://www.w3.org/2000/svg">
<path d="M11 21C5.07667 21.78 1 23.4333 1 26C1 29.2217 7.715 32 16 32C24.285 32 31 29.2217 31 26C31 23.4333 26.9233 21.78 21 21" stroke="#323232" stroke-width="2" stroke-linecap="round" stroke-linejoin="round"/>
<path fill-rule="evenodd" clip-rule="evenodd" d="M26 10C26 4.63167 21.5233 1 16 1C10.4767 1 6 4.63167 6 10C6 17.2917 16 26 16 26C16 26 26 17.2917 26 10Z" stroke="#323232" stroke-width="2" stroke-linecap="round" stroke-linejoin="round"/>
<path d="M18.1575 6.84254C19.2808 7.96593 19.2808 10.0341 18.1575 11.1575C17.0341 12.2808 14.9659 12.2808 13.8425 11.1575C12.7192 10.0341 12.7192 7.96593 13.8425 6.84254C14.9659 5.71915 17.0341 5.71915 18.1575 6.84254" stroke="#323232" stroke-width="2" stroke-linecap="round" stroke-linejoin="round"/>
</svg>
