<svg width="80" height="147" viewBox="0 0 80 147" fill="none" xmlns="http://www.w3.org/2000/svg">
<path fill-rule="evenodd" clip-rule="evenodd" d="M1 0C0.447715 0 0 0.447714 0 0.999999V98.6377C0 99.19 0.447715 99.6377 1 99.6377H11.1466H39.6055C40.1578 99.6377 40.6055 99.19 40.6055 98.6377V89.4783C40.6055 88.926 40.1578 88.4783 39.6055 88.4783H11.1466V1C11.1466 0.447715 10.6989 0 10.1466 0H1Z" fill="#A1C4FF"/>
<path d="M0 0.999999C0 0.447715 0.447715 0 1 0H39.6055C40.1578 0 40.6055 0.447715 40.6055 1V10.1594C40.6055 10.7117 40.1578 11.1594 39.6055 11.1594H0V0.999999Z" fill="#475773"/>
<path fill-rule="evenodd" clip-rule="evenodd" d="M28 47C27.4477 47 27 47.4477 27 48V57.1594C27 57.7117 27.4477 58.1594 28 58.1594H54.8662V135.478H28C27.4477 135.478 27 135.926 27 136.478V145.638C27 146.19 27.4477 146.638 28 146.638H55.8662H56.4589H65.0128C65.5651 146.638 66.0128 146.19 66.0128 145.638V48C66.0128 47.4477 65.5651 47 65.0128 47H56.4589H55.8662H28Z" fill="#475773"/>
</svg>
