<svg width="36" height="36" viewBox="0 0 36 36" fill="none" xmlns="http://www.w3.org/2000/svg">
<path fill-rule="evenodd" clip-rule="evenodd" d="M16.0519 19.9481C13.615 17.5113 11.3631 14.8368 10.1426 12.0689C9.88428 11.4837 9.69058 11.536 10.1426 11.084L12.1123 9.11422C13.5099 7.71672 13.3329 5.4102 12.1123 4.18973L10.1426 2.21994C8.51587 0.593353 5.85988 0.593353 4.23319 2.21994L2.26341 3.20484C0.720039 4.74812 0.861952 6.90655 1.27852 9.11422C2.30743 14.5563 5.04173 20.7569 10.1426 25.8575C15.2434 30.958 21.4433 33.6927 26.8857 34.7215C29.0935 35.1381 31.2517 35.2799 32.7951 33.7366L33.78 31.7668C35.4067 30.1402 35.4067 27.484 33.78 25.8575L31.8102 23.8877C30.5897 22.6672 28.1042 22.6672 26.8857 23.8877L24.916 25.8575C24.464 26.3094 24.5163 26.1157 23.9311 25.8575C21.163 24.6349 18.4888 22.3848 16.0519 19.9481Z" stroke="#323232" stroke-width="2" stroke-linecap="round" stroke-linejoin="round"/>
</svg>
