<svg width="98" height="88" viewBox="0 0 98 88" xmlns="http://www.w3.org/2000/svg">
<path d="M5.03398 0.555076C3.27305 1.14844 1.51211 2.75625 0.6125 4.59375L0.0957031 5.64648V20.4805V35.3145L0.650781 36.4437C1.33984 37.8602 2.87109 39.3914 4.32578 40.0996L5.45508 40.6738L20.6336 40.7312C34.9316 40.7695 35.8313 40.7887 35.6973 41.1141C35.4102 41.8988 34.8359 44.234 34.6254 45.6121C34.3383 47.5262 34.5105 52.8473 34.9316 54.5508C35.8504 58.3023 37.5348 61.8816 39.7168 64.6953C39.9273 64.9633 40.9227 65.9969 41.918 66.9922C44.8656 69.9398 48.3109 71.9687 52.2539 73.098C55.2781 73.9594 56.8094 74.1316 60.2355 74.0359C64.2168 73.902 66.7625 73.3086 70.3035 71.6434L71.7965 70.9352L79.7781 78.8977C85.0609 84.1805 88.0469 87.0133 88.6211 87.3195C89.3676 87.7023 89.7504 87.7598 91.4922 87.7598C93.2914 87.7598 93.5977 87.7023 94.459 87.243C95.684 86.6113 96.7559 85.5395 97.3875 84.3145C97.8469 83.4531 97.9043 83.1469 97.9043 81.3477C97.9043 78.5723 97.732 78.2852 93.2531 73.8254L89.6547 70.2461H88.7742C87.3961 70.2461 86.5156 71.3945 86.8793 72.6961C86.975 73.0023 88.334 74.5145 90.1906 76.3711C93.5211 79.7016 93.923 80.1992 93.9805 80.9648C94.0762 82.0367 93.9422 82.3812 93.234 83.0895C92.5641 83.7785 92.4109 83.8359 91.473 83.8359H90.4586L82.8215 76.218L75.1844 68.6L76.6582 67.1645C80.5438 63.4129 83.1086 58.4746 83.9699 53.1344C84.4102 50.3016 84.2379 45.7078 83.5871 43.2578C83.3191 42.2625 83.0512 41.2863 82.9746 41.1141C82.8598 40.827 83.2426 40.7887 87.7023 40.7312L92.5449 40.6738L93.6742 40.1187C95.0906 39.3914 96.641 37.8602 97.3492 36.4246L97.9043 35.3145V20.4805V5.64648L97.3301 4.51719C96.6219 3.0625 95.0906 1.53125 93.6742 0.842186L92.5449 0.287108L62.1113 0.229686C40.6164 0.191405 31.5246 0.248826 31.1801 0.401951C30.223 0.784764 29.8977 2.62226 30.625 3.40703C30.8547 3.63672 31.0461 3.84726 31.0652 3.8664C31.0844 3.90469 44.6359 3.96211 61.1543 4.01953L91.2051 4.11523L91.9707 4.51719C92.8512 4.9957 93.2148 5.37851 93.7125 6.3164C94.057 6.94805 94.0762 7.65625 94.0762 20.4805V33.9746L93.5977 34.8359C93.0617 35.7738 92.2004 36.4437 91.1285 36.75C90.7457 36.8457 88.3531 36.9414 85.8074 36.9414H81.1754L80.448 35.8312C78.8594 33.4004 76.7348 31.0844 74.6484 29.4574C72.8301 28.041 70.1695 26.5289 68.6766 26.0504C68.2746 25.9164 67.9109 25.7441 67.8535 25.6484C67.7961 25.5719 68.3512 24.2512 69.0785 22.7582L70.3801 20.002L70.916 21.0547C73.9402 27.0648 74.1699 27.3711 75.4715 27.3711C76.8688 27.352 76.6199 27.773 81.1563 18.2793C82.3621 15.7527 82.4578 15.0254 81.6348 14.1641C81.1945 13.7047 80.9266 13.5898 80.2758 13.5898C79.7973 13.5898 79.3188 13.7238 79.0316 13.9535C78.7637 14.1449 77.9023 15.7145 77.041 17.4945C76.218 19.2363 75.4715 20.6719 75.3949 20.6719C75.2801 20.6719 74.8016 19.8297 72.9449 16.193C72.409 15.1594 71.7965 14.1449 71.5668 13.9535C71.05 13.4941 69.7293 13.475 69.1359 13.8961C68.8871 14.0684 68.0258 15.5996 67.1453 17.4371C66.284 19.2172 65.5184 20.6719 65.4609 20.6719C65.327 20.6719 64.9441 19.9445 63.1449 16.4227C62.5133 15.1977 61.8242 14.0492 61.5945 13.877C61.3457 13.7238 60.7906 13.5898 60.3313 13.5898C59.6613 13.5898 59.3934 13.7047 58.934 14.1449C58.0918 15.0062 58.1875 15.657 59.5465 18.3176C60.1973 19.5617 61.1734 21.4375 61.7285 22.4902L62.7047 24.4043L59.068 24.4234C56.3309 24.4234 55.1059 24.5 54.168 24.7488C53.498 24.9211 52.9047 25.0359 52.8855 24.9977C52.8473 24.9594 53.5172 23.4855 54.3785 21.7055C57.3836 15.4848 57.4602 15.2551 56.5414 14.1832C56.1203 13.6664 55.9289 13.5898 55.1633 13.5898C53.7086 13.609 53.8043 13.475 50.6844 20.0594C50.4738 20.4996 50.2633 20.8441 50.2441 20.825C50.1867 20.7484 48.5598 17.6477 47.4688 15.5805C46.6074 13.8961 46.2246 13.5898 44.9996 13.5898C44.0809 13.5898 43.6215 14.0301 42.9133 15.5613C41.5352 18.4707 40.3484 20.8824 40.291 20.825C40.2719 20.7867 39.4871 19.3129 38.5492 17.5137C37.6305 15.7336 36.6926 14.1258 36.482 13.9344C36.2332 13.7238 35.7547 13.609 35.1805 13.5898C34.4148 13.5898 34.2234 13.6664 33.8023 14.1832C32.941 15.1977 33.075 15.6762 35.4867 20.3656C38.8746 26.9117 38.8938 26.95 39.3723 27.1605C40.0039 27.4477 41.1715 27.4094 41.5926 27.1031C41.8797 26.8734 42.5879 25.5336 44.6934 21.1887C44.9805 20.5762 45.2484 20.1168 45.2676 20.1359C45.3059 20.1742 45.9949 21.4758 46.7988 23.0645C47.6219 24.634 48.3684 26.0121 48.4449 26.127C48.7512 26.4523 48.6363 26.5863 47.641 27.1223C46.6266 27.6773 46.4352 27.7922 45.459 28.4238C44.2148 29.2277 43.0855 30.1848 41.4395 31.85C39.9082 33.4195 38.0898 35.7355 38.0898 36.1566C38.0898 36.2332 37.9367 36.4437 37.7453 36.616C37.4199 36.9223 36.0801 36.9414 22.4711 36.9414C13.073 36.9414 7.31172 36.8648 6.87148 36.75C5.79961 36.4437 4.93828 35.7738 4.40234 34.8359L3.92383 33.9746L3.86641 21.0547C3.82813 11.7332 3.86641 7.84765 4.01953 7.10117C4.1918 6.3164 4.44063 5.89531 5.07227 5.26367C6.16328 4.15351 6.92891 4.01953 11.9629 4.01953C14.566 4.01953 16.2313 3.94297 16.5184 3.80898C17.7051 3.27305 17.7051 0.937889 16.5184 0.401951C16.2121 0.267967 14.3172 0.191405 11.0441 0.191405C6.7375 0.210545 5.89531 0.248826 5.03398 0.555076ZM61.8242 28.4238C67.1645 28.9215 72.2367 31.8309 75.9117 36.482C78.7254 40.0805 80.1992 44.4254 80.1992 49.1914C80.1992 53.9 78.8594 57.9578 76.084 61.6711C72.0453 67.0496 66.1117 70.0355 59.4316 70.0738C56.0055 70.1121 53.0195 69.423 50.0527 67.9109C40.5973 63.1449 36.2141 52.5219 39.5445 42.3965C40.7887 38.6449 43.7746 34.6062 47.1051 32.1945C49.4594 30.491 53.2684 28.9406 56.0438 28.5195C58.4555 28.175 58.934 28.1559 61.8242 28.4238Z"    />
<path d="M55.2781 32.7496C50.4929 33.8981 46.5308 37.0946 44.1957 41.6692C42.4921 44.9996 41.9945 49.3637 42.8749 53.1535C43.5449 55.9864 45.7652 59.8528 47.6984 61.5371C51.4499 64.8293 55.1632 66.1692 60.0058 65.9778C62.9726 65.8629 64.3699 65.5375 66.7242 64.3891C70.2843 62.6473 72.8874 60.0059 74.6484 56.3692C76.6773 52.1774 76.7156 46.4543 74.7632 42.2051C72.4664 37.2285 68.2937 33.8789 62.9152 32.6539C61.0777 32.2328 57.2113 32.2711 55.2781 32.7496ZM62.073 36.5778C64.2933 36.9989 66.839 38.4535 68.5999 40.2719C71.0691 42.8559 72.1601 45.5739 72.1792 49.0957C72.1984 53.2875 70.3992 56.9242 67.0496 59.47C63.2789 62.3219 58.264 62.877 53.9765 60.9246C52.6941 60.3504 50.4546 58.666 49.6699 57.709C49.3445 57.3071 48.9042 56.752 48.6746 56.4649C48.0812 55.7375 47.1816 53.7086 46.7988 52.2539C46.416 50.8184 46.3585 47.8516 46.6839 46.4352C47.0093 45.0571 47.9472 42.9707 48.7511 41.8414C51.8328 37.5348 56.8285 35.5633 62.073 36.5778Z"    />
<path d="M58.2641 40.7887C57.1348 41.3629 57.1539 43.6598 58.3024 44.1957C58.5512 44.3105 59.1446 44.4445 59.6422 44.5211C62.0539 44.8465 63.6809 46.4543 63.9871 48.8277C64.2168 50.493 64.7528 51.1055 66.0352 51.1055C67.5473 51.1055 68.0641 50.2824 67.8918 48.1387C67.6813 45.3633 65.7289 42.607 63.0493 41.3437C61.9774 40.8461 61.4414 40.7121 60.1973 40.6547C59.2977 40.6164 58.4938 40.6738 58.2641 40.7887Z"    />
<path d="M23.0452 0.42114C21.8968 0.957077 21.9351 3.27309 23.1027 3.80903C24.1171 4.26841 25.457 3.94301 25.8206 3.11997C26.28 2.10551 25.9546 0.765671 25.1316 0.401999C24.5765 0.153171 23.5812 0.153171 23.0452 0.42114Z"    />
<path d="M8.86209 13.8771C8.61326 14.0493 8.32615 14.5087 8.21131 14.9298C7.98162 15.6571 8.0199 15.7528 9.16834 18.0306C12.0394 23.7728 13.6281 26.7204 14.0301 27.0267C14.566 27.4478 15.8484 27.4669 16.4226 27.065C16.6715 26.8927 17.5328 25.3997 18.4133 23.5239C19.2746 21.7439 20.0402 20.2892 20.1168 20.2892C20.1933 20.2892 20.4039 20.6146 20.6144 20.9974C22.9687 25.6294 23.6386 26.8353 23.9832 27.0841C24.5191 27.4669 25.8398 27.4478 26.3758 27.065C26.6246 26.8927 27.1222 26.1271 27.4859 25.3423C27.8496 24.5575 29.0172 22.1458 30.0508 19.9829C32.1945 15.5614 32.3094 15.0638 31.4097 14.145C30.9504 13.7048 30.6824 13.59 30.0125 13.59C28.9215 13.59 28.3855 13.9919 27.8496 15.1978C27.6199 15.7337 26.8926 17.2458 26.2609 18.5474C25.3039 20.538 25.0933 20.8634 24.9211 20.5571C24.8254 20.3466 24.0789 18.8919 23.2558 17.3224C22.4519 15.7337 21.5715 14.2599 21.3226 14.0111C20.7867 13.5517 19.6 13.4368 18.9109 13.8005C18.6812 13.9153 17.8582 15.4083 16.8437 17.4755L15.1594 20.94L14.5469 19.6958C11.5609 13.8005 11.4078 13.59 10.0871 13.59C9.62771 13.59 9.09177 13.7239 8.86209 13.8771Z"    />
<path d="M82.8598 66.2075C82.0942 66.9922 82.0559 68.2938 82.8216 68.9829C84.238 70.3036 86.1903 69.4422 86.1712 67.4899C86.152 65.8055 84.0657 65.0016 82.8598 66.2075Z"    />
</svg>
