<svg width="98" height="90" viewBox="0 0 98 90" xmlns="http://www.w3.org/2000/svg">
<path d="M40.0805 0.574525C39.2383 0.938197 39.0469 1.56984 39.0469 3.98156C39.0469 5.2257 39.1234 6.56554 39.2191 6.94835C39.3914 7.65656 39.3914 7.65656 38.8746 7.44601C38.6066 7.33117 37.6879 7.2546 36.8457 7.2546C34.9508 7.2546 33.6492 7.71398 32.1371 8.9007C30.2613 10.4128 29.2086 13.1882 29.6105 15.5616L29.802 16.6335L29.0746 16.8441C27.1605 17.4183 25.4188 18.9495 24.5383 20.8445C24.0789 21.8206 24.0215 22.1652 24.0215 24.0027C24.0215 26.0507 24.0215 26.0698 23.543 26.1847C22.5859 26.4144 21.2652 27.1991 20.3848 28.0987C18.6621 29.8214 17.9539 32.2331 18.4707 34.7023C18.6238 35.4487 18.7387 36.0804 18.7004 36.0995C18.6813 36.1187 18.0305 36.4632 17.2648 36.8652C15.7145 37.6691 14.834 38.5687 14.0301 40.1765C13.5516 41.1718 13.4941 41.4589 13.4941 43.2773C13.4941 46.1101 13.8578 46.8183 16.8438 49.8616L19.1406 52.2159L9.57031 61.8245L0 71.4331V72.3519C0 73.6726 0.631641 74.2851 1.97148 74.2851H2.94766L12.6328 64.6191L22.318 54.953L23.4473 55.355C25.0551 55.9292 27.3902 55.7952 28.9598 55.0487C31.1227 54.0152 32.7496 51.7374 33.0367 49.3448L33.1516 48.2921L34.2426 48.1773C37.4391 47.8136 40.2527 44.9999 40.5207 41.8991C40.6164 40.8655 40.6547 40.789 41.1332 40.789C42.5496 40.789 44.7891 39.7937 45.9184 38.7027C47.0859 37.5542 48.043 35.487 48.043 34.0898V33.4007L49.4594 33.1519C51.8711 32.7499 53.7277 31.3718 54.8762 29.1323C55.3738 28.1562 55.4121 27.8882 55.4121 25.955C55.4121 24.0218 55.3738 23.7538 54.857 22.7394C54.5508 22.146 54.2254 21.5909 54.1297 21.5335C53.9 21.3804 66.2074 9.05382 67.241 8.36476C68.5617 7.52257 70.3227 7.75226 71.4328 8.93898C71.9496 9.49406 72.4281 10.853 72.275 11.3316C72.2367 11.4847 72.141 11.8484 72.0645 12.1737C71.9688 12.5948 70.5906 14.107 67.0879 17.6288C63.8723 20.8445 62.1879 22.7011 62.0922 23.0456C61.9199 23.7538 62.475 24.9788 63.0875 25.2659C63.7574 25.5722 64.5422 25.5339 65.0781 25.1702C65.3461 24.9788 67.241 23.1796 69.2891 21.1507C73.3086 17.1886 73.5 17.0737 75.2227 17.3034C77.175 17.5523 78.4191 19.83 77.6344 21.6675C77.4621 22.0312 75.7586 23.907 73.6914 25.955C71.6625 27.9456 69.9016 29.8597 69.7484 30.2042C69.4039 30.989 69.5762 31.8503 70.2078 32.4628C70.5715 32.8265 70.8777 32.9413 71.5477 32.9413C72.409 32.9413 72.4281 32.9222 75.3949 29.9937C77.041 28.3667 78.6297 26.9312 78.9359 26.8355C79.6633 26.5484 80.85 26.5675 81.6156 26.8929C82.9172 27.4288 83.7402 29.2663 83.3574 30.7784C83.2809 31.1038 82.1516 32.4054 80.3906 34.1855C78.8402 35.755 77.4621 37.248 77.3473 37.4777C76.6391 38.8558 77.5387 40.4636 79.0316 40.4636C79.7398 40.4636 79.9504 40.3296 81.6348 38.7218C83.8551 36.578 84.9461 36.157 86.3816 36.8843C88.2383 37.8222 88.8891 39.5448 88.0469 41.2675C87.798 41.7843 84.2762 45.421 77.3855 52.2925C66.4563 63.1644 65.5949 63.9109 62.0922 65.6335C58.6277 67.337 54.8188 68.3323 51.7754 68.3515H50.8184L41.784 77.3859C32.118 87.0519 32.0988 87.071 32.6156 88.3343C32.9793 89.2148 33.7641 89.655 34.702 89.5402C35.4293 89.4445 35.927 88.9851 41.8797 83.0132C45.3824 79.4722 48.3492 76.582 48.4449 76.582C48.5406 76.582 49.4211 76.9648 50.3973 77.4241C52.4836 78.4386 55.1059 79.0702 57.4793 79.1659L59.202 79.2234L64.3508 84.3722L69.4996 89.5019H70.4566C71.7391 89.5019 72.3516 88.8702 72.3516 87.5304V86.6499L66.6094 80.8886L60.8672 75.1464L58.4363 75.1273C55.8332 75.1081 53.8426 74.7062 52.2156 73.8831L51.4309 73.4812L51.9859 72.9261C52.4836 72.4476 52.7898 72.3519 54.6465 72.0839C60.1398 71.3183 64.4465 69.4999 69.0977 65.978C70.8012 64.6956 89.9801 45.5741 91.0328 44.1195C92.6406 41.88 92.8703 38.9323 91.6453 36.5015C90.8988 35.0277 88.9848 33.4581 87.243 32.8839C86.9559 32.7882 86.9559 32.7116 87.2238 31.946C87.4152 31.3909 87.4918 30.587 87.4344 29.496C87.3578 27.6202 86.841 26.2995 85.5777 24.864C84.8313 24.0218 83.0895 22.9691 82.075 22.7202C81.5965 22.6054 81.5773 22.5671 81.7688 21.8972C82.0941 20.7296 81.8262 18.7198 81.1945 17.38C80.2758 15.4851 79.0699 14.3749 77.1367 13.6476C76.3328 13.3605 76.1031 13.1691 76.1414 12.9011C76.2754 11.9441 76.1797 9.58976 75.95 8.91984C75.2609 6.87179 73.9211 5.34054 72.007 4.46007C70.4758 3.75187 68.0832 3.63703 66.6285 4.21124L65.5949 4.59406L64.523 3.63703C63.3746 2.58429 61.4605 1.53156 59.623 0.919056C58.5512 0.555384 57.9387 0.517103 49.4785 0.459681C44.5402 0.440541 40.3102 0.497963 40.0805 0.574525ZM58.0918 4.7089C59.5848 5.11085 60.6184 5.64679 61.652 6.5464L62.4941 7.27374L56.8477 12.9202L51.2012 18.5859L48.7129 16.0976L46.2246 13.6093H50.0719H53.9L54.3977 13.0734C55.3547 12.078 55.259 10.7573 54.1871 10.03C53.766 9.72374 53.2109 9.68546 50.2633 9.64718C46.1863 9.62804 45.6121 9.45578 44.3297 8.02023C43.4492 7.0632 43.0664 6.16359 43.0664 5.03429V4.42179H50.0145C55.6609 4.42179 57.173 4.47921 58.0918 4.7089ZM38.2621 11.5038C38.4152 11.5804 41.3246 14.4323 44.7508 17.8394C51.2969 24.3663 51.7945 24.9788 51.5648 26.2612C51.2777 27.7351 50.1676 28.9601 48.8852 29.228C48.5598 29.2855 47.9281 29.228 47.4496 29.1132C46.7031 28.9218 45.8992 28.1945 40.425 22.7394C34.2234 16.557 33.4961 15.6765 33.4961 14.4515C33.5152 13.6284 34.1277 12.3843 34.7785 11.9249C35.793 11.1976 37.3434 11.0062 38.2621 11.5038ZM32.0414 20.7105C32.7688 20.8827 33.5152 21.5527 38.243 26.2995C41.1906 29.2663 43.7172 31.946 43.8129 32.2331C44.2723 33.4198 44.0234 34.798 43.2004 35.6976C42.3008 36.6546 40.9418 36.98 39.6594 36.5206C38.9703 36.2718 28.6918 26.1273 28.2133 25.2468C28.0602 24.9597 27.9453 24.3855 27.9453 23.9452C27.9453 22.4523 28.7684 21.2847 30.1848 20.787C31.0844 20.4616 31.0461 20.4616 32.0414 20.7105ZM26.5098 30.0894C27.1414 30.2616 28.0219 31.0464 31.3715 34.3386C35.9078 38.8366 36.5586 39.6597 36.5586 40.923C36.5586 43.239 34.166 44.8659 32.0988 43.9663C31.582 43.7366 23.2559 35.621 22.7582 34.8362C21.9734 33.6304 22.2031 32.0609 23.2941 30.9698C24.2895 29.9745 25.1699 29.7257 26.5098 30.0894ZM21.9543 40.3105C22.7391 40.6359 27.7348 45.4976 28.5961 46.7991C29.3043 47.871 29.2852 49.0577 28.5195 50.2062C27.6008 51.6034 26.0121 52.082 24.4809 51.4312C23.7152 51.1058 18.1645 45.555 17.7242 44.6745C17.3031 43.8515 17.3414 42.6456 17.7816 41.7652C18.5664 40.253 20.3082 39.6597 21.9543 40.3105Z" />
<path d="M85.4438 54.4746C84.372 55.2211 84.4294 57.1543 85.5587 57.7285C87.0134 58.475 88.3915 57.8051 88.5638 56.2547C88.6595 55.4508 88.6212 55.2976 88.0852 54.7617C87.6067 54.3023 87.3388 54.1875 86.6688 54.1875C86.2095 54.1875 85.6544 54.3215 85.4438 54.4746Z" />
<path d="M90.7265 58.9152C89.7886 59.2789 89.1761 60.523 89.4824 61.4801C89.559 61.7098 90.8605 63.1453 92.3535 64.6574L95.0906 67.3945H96.0285C97.3875 67.3754 98 66.7437 98 65.3465C97.9808 64.6957 97.8086 64.4469 96.507 63.0687C93.7507 60.1594 92.3535 58.9727 91.6644 58.877C91.3008 58.8387 90.8797 58.8387 90.7265 58.9152Z" />
</svg>
