<svg width="30" height="30" viewBox="0 0 30 30" fill="none" xmlns="http://www.w3.org/2000/svg">
<path fill-rule="evenodd" clip-rule="evenodd" d="M22.4246 7.57538C18.3241 3.47487 11.6759 3.47487 7.57538 7.57538C3.47487 11.6759 3.47487 18.3241 7.57538 22.4246L7.06334 22.9366L7.57538 22.4246C11.6759 26.5251 18.3241 26.5251 22.4246 22.4246C26.5249 18.3243 26.5251 11.6764 22.4251 7.57587L22.4246 7.57538ZM23.4843 6.51381C18.798 1.82843 11.2007 1.82873 6.51472 6.51472C1.82843 11.201 1.82843 18.799 6.51472 23.4853C11.201 28.1716 18.799 28.1715 23.4853 23.4853C28.1716 18.799 28.1715 11.201 23.4853 6.51472L23.4843 6.51381ZM9.85492 13.5625V18.9375H11.4799V14.3389C11.4782 14.3093 11.4781 14.2795 11.4799 14.2497V13.5638L11.4799 13.5625H9.85492ZM12.4897 12.429C12.2392 12.2015 11.9078 12.0625 11.5312 12.0625H9.80367C9.00321 12.0625 8.35492 12.7108 8.35492 13.5112V18.9888C8.35492 19.7892 9.00321 20.4375 9.80367 20.4375H11.5312C12.0721 20.4375 12.5748 20.1298 12.8212 19.6706L13.1033 19.9045L13.8781 18.5984L13.8785 18.5987L13.1038 19.9049C13.5185 20.2491 14.0417 20.4375 14.5799 20.4375H19.0587C19.9552 20.4375 20.7425 19.8428 20.9896 18.9819L20.9898 18.981L21.9046 15.7793C22.1041 15.0837 21.9874 14.3351 21.587 13.7335C21.1335 13.0514 20.3708 12.6412 19.5524 12.6412H18.7774H18.2234L18.2274 11.2661L18.2274 11.2659C18.2347 8.92546 15.1618 8.05729 13.9414 10.0524L13.9412 10.0528L12.4897 12.429ZM12.9799 14.5039V17.8538L13.8781 18.5984L16.786 13.6961C16.786 13.6962 16.786 13.6962 16.786 13.6963L13.8785 18.5987L14.0611 18.7501L14.0616 18.7505C14.2067 18.871 14.3909 18.9375 14.5799 18.9375H19.0587C19.2846 18.9375 19.4847 18.7873 19.5477 18.5684L19.5478 18.5681L20.4626 15.3664L20.4628 15.3657C20.5407 15.0939 20.4951 14.8001 20.3381 14.5643L20.3379 14.564C20.1614 14.2985 19.8666 14.1412 19.5524 14.1412H18.7774H17.4712C17.2719 14.1412 17.0808 14.0619 16.9401 13.9208C16.8748 13.8553 16.8229 13.7791 16.786 13.6963L18.2274 11.2659L16.786 13.6961C16.7434 13.6004 16.7209 13.4958 16.7212 13.389L16.7275 11.2615L16.7275 11.2614C16.7301 10.4396 15.651 10.1328 15.2212 10.8347L15.2212 10.8348L15.221 10.8351L12.9799 14.5039Z" fill="black"/>
</svg>
