<svg width="30" height="30" viewBox="0 0 30 30" fill="none" xmlns="http://www.w3.org/2000/svg">
<path fill-rule="evenodd" clip-rule="evenodd" d="M7.42544 7.74126C9.33607 5.74413 12.0212 4.5 15 4.5C20.7995 4.5 25.5 9.20046 25.5 15C25.5 15.6217 25.4354 16.2334 25.3278 16.8388C25.2553 17.2466 25.5271 17.6359 25.935 17.7084C26.3428 17.7809 26.7322 17.5091 26.8046 17.1012C26.9245 16.4266 27 15.7258 27 15C27 8.37204 21.6279 3 15 3C11.5602 3 8.46485 4.4519 6.28009 6.76922V5.50751C6.28009 5.09329 5.9443 4.75751 5.53009 4.75751C5.11588 4.75751 4.78009 5.09329 4.78009 5.50751V8.49126C4.78009 8.90547 5.11588 9.24126 5.53009 9.24126H5.8255H5.84314H8.51634C8.93055 9.24126 9.26634 8.90547 9.26634 8.49126C9.26634 8.07704 8.93055 7.74126 8.51634 7.74126H7.42544ZM14.2064 11.0982C15.5011 9.80072 17.5991 9.79987 18.8946 11.0964L18.8948 11.0966C20.1912 12.393 20.1941 14.5002 18.9012 15.7995C17.9979 16.7044 16.7008 16.9665 15.5485 16.5981C15.3007 16.5189 15.0295 16.5738 14.832 16.7431L14.8233 16.7506C14.8085 16.7632 14.7943 16.7764 14.7805 16.7902L12.0268 19.5489C11.5936 19.9829 10.8904 19.9829 10.4571 19.5489C10.026 19.117 10.0253 18.416 10.4574 17.9821L10.4576 17.9819L13.2109 15.2236L13.2147 15.2198C13.4145 15.0285 13.5005 14.7335 13.4116 14.4518C13.0474 13.2975 13.3078 12.001 14.2064 11.0982ZM13.1436 10.0396C11.9437 11.2449 11.5338 12.9169 11.8619 14.4518L9.39555 16.9227L9.39511 16.9231C8.37994 17.9418 8.37928 19.5906 9.39557 20.6086C10.4148 21.6296 12.0691 21.6296 13.0884 20.6086L13.0884 20.6086L15.5446 18.148C17.0833 18.4814 18.7587 18.066 19.9635 16.8585L19.9642 16.8578C21.8411 14.9721 21.8364 11.9169 19.9554 10.0359C18.0735 8.15275 15.0244 8.15437 13.1442 10.0391L13.1436 10.0396ZM16.5536 12.5475C16.0532 12.5475 15.6474 12.9533 15.6474 13.4538C15.6474 13.9542 16.0532 14.36 16.5536 14.36C17.0541 14.36 17.4599 13.9542 17.4599 13.4538C17.4599 12.9494 17.049 12.5475 16.5536 12.5475ZM20.7338 21.5088C20.7338 21.0946 21.0696 20.7588 21.4838 20.7588H24.1544C24.1619 20.7587 24.1694 20.7587 24.1769 20.7588H24.47C24.8842 20.7588 25.22 21.0946 25.22 21.5088V24.4925C25.22 24.9068 24.8842 25.2425 24.47 25.2425C24.0558 25.2425 23.72 24.9068 23.72 24.4925V23.2306C21.5352 25.5481 18.4399 27 15 27C8.37204 27 3 21.628 3 15C3 14.2743 3.07541 13.5734 3.19532 12.8988C3.26781 12.4909 3.65717 12.2191 4.06499 12.2916C4.47282 12.3641 4.74466 12.7534 4.67218 13.1613C4.56459 13.7666 4.5 14.3783 4.5 15C4.5 20.7996 9.20046 25.5 15 25.5C17.9787 25.5 20.6639 24.2559 22.5745 22.2588H21.4838C21.0696 22.2588 20.7338 21.923 20.7338 21.5088Z" fill="black"/>
</svg>
