<svg width="98" height="98" viewBox="0 0 98 98" xmlns="http://www.w3.org/2000/svg">
<path d="M44.1191 0.114789C40.7503 0.593304 39.2765 0.861273 37.8984 1.18666C32.0414 2.56479 27.0074 4.72768 22.0882 7.96245C20.2124 9.20659 20.0785 9.35971 19.9636 10.3933C19.8871 11.1015 19.9445 11.2929 20.4421 11.8289C20.9207 12.3456 21.1503 12.4414 21.8777 12.4414C22.5476 12.4414 22.8921 12.3074 23.6003 11.7714C24.0789 11.4078 24.5382 11.1015 24.5957 11.1015C24.6722 11.1015 24.9976 10.891 25.323 10.6421C26.5671 9.6851 32.1753 7.06284 34.7402 6.23979C37.5156 5.34018 40.9609 4.49799 40.9609 4.72768C40.9609 4.76596 40.6738 5.2062 40.3101 5.72299C37.7261 9.51284 35.0273 16.9203 33.6683 23.9449L33.4386 25.2273L32.5582 25.3421C31.1992 25.5144 29.3999 26.4714 28.3089 27.5816C27.4285 28.4812 26.2226 30.5292 26.2226 31.1417C26.2226 31.3331 24.232 31.3906 16.9394 31.3906C10.3359 31.3906 7.6562 31.3331 7.6562 31.18C7.6562 30.7781 9.26401 27.6581 10.5847 25.4953C11.7906 23.5238 11.9054 23.2558 11.8097 22.5476C11.6374 21.246 10.5273 20.557 9.22573 20.9015C8.70893 21.0355 8.40268 21.38 7.54135 22.7007C5.41674 26.0121 3.75151 29.4956 2.41167 33.5535C1.83745 35.257 1.47378 36.5777 0.765573 39.7167C-5.23092e-05 43.0855 -0.22974 50.5503 0.287057 55.0101C0.899557 60.2163 2.50737 65.6331 4.84253 70.4374C5.55073 71.8539 6.22065 73.1937 6.35464 73.4042C6.48862 73.5956 7.1394 74.6101 7.79018 75.6246L8.99604 77.4812L8.38354 78.7828C7.86674 79.8929 7.7519 80.3714 7.69448 81.8453C7.61792 83.6828 7.8476 84.7738 8.65151 86.3816C9.22573 87.53 10.8144 88.9847 12.2308 89.6546C13.4175 90.2097 13.6281 90.248 15.6953 90.248C17.7816 90.248 17.973 90.2097 19.2363 89.6164L20.557 88.9847L21.0738 89.3675C23.2558 90.9945 27.9261 93.5019 31.0078 94.7078C36.6734 96.9281 41.1906 97.7894 47.8515 97.9425C52.8664 98.0574 55.7566 97.8085 59.7187 96.9281C62.0347 96.4113 66.571 95.014 66.8773 94.7269C66.9921 94.6312 67.1835 94.5546 67.3367 94.5546C67.7769 94.5546 72.6195 92.1429 74.5144 90.9753C76.1222 89.98 78.7253 88.1234 80.3906 86.7835C81.2519 86.0753 85.8648 81.4816 86.6878 80.4863C92.6789 73.3085 96.5644 64.3699 97.7128 55.1249C98.3253 50.091 98 43.2003 96.9281 38.2812C96.4304 36.0417 95.0523 31.6777 94.3441 30.0699C92.5449 26.0886 92.1429 25.3613 90.0183 22.0882L89.0039 20.5187L89.6164 19.2171C90.4394 17.3796 90.5925 14.9871 89.98 13.1496C89.1761 10.757 87.6449 9.09174 85.4246 8.19213C84.4867 7.82846 83.9699 7.7519 82.2089 7.7519C80.2183 7.7519 80.0269 7.79018 78.7828 8.38354L77.4429 9.01518L76.6773 8.4601C73.9976 6.54604 70.3035 4.61284 66.5136 3.10073C63.8148 2.04799 60.025 1.03354 56.5222 0.45932C54.723 0.172211 45.5546 -0.0957581 44.1191 0.114789ZM50.78 4.44057C54.1679 6.12495 57.5367 12.7667 59.9101 22.4519C60.3695 24.3277 61.4414 30.2804 61.4414 30.9503V31.3906H51.6988H41.9753L41.5734 30.2804C41.3437 29.6871 41.0183 28.9788 40.8269 28.73C40.2144 27.907 38.9894 26.7777 38.1664 26.2992L37.3624 25.8206L37.7261 24.1554C39.9464 14.0109 43.564 6.33549 46.9902 4.55541C48.464 3.78979 49.421 3.75151 50.78 4.44057ZM59.4316 5.14877C63.3554 5.99096 69.5187 8.53666 72.4855 10.5273C72.9449 10.8527 73.3851 11.1015 73.4617 11.1015C73.5382 11.1015 73.8828 11.3503 74.2273 11.6374L74.8781 12.1734L74.5527 13.2835C74.0359 15.0253 74.2273 17.5328 74.9738 19.1406C75.7203 20.7867 77.2132 22.2796 78.8593 23.0261C80.448 23.7726 82.9554 23.964 84.5824 23.4663C85.1566 23.2941 85.6925 23.1601 85.7882 23.1601C86.0562 23.1601 87.9703 26.28 89.2718 28.8257L90.5351 31.2949L78.1511 31.3523C71.3562 31.3714 65.748 31.3523 65.7097 31.314C65.6523 31.2757 65.3652 29.7445 65.0589 27.9261C64.121 22.3179 63.0492 17.9921 61.6136 13.9152C60.7523 11.4652 58.7425 7.27338 57.7281 5.79955C56.9433 4.65112 56.905 4.53627 57.3835 4.67026C57.5558 4.72768 58.4937 4.93823 59.4316 5.14877ZM84.1804 12.0968C85.1949 12.5753 85.9222 13.5132 86.2476 14.7574C87.1089 18.0878 83.5488 20.9015 80.4671 19.3128C79.1082 18.6238 78.4191 17.5519 78.3234 15.9824C78.1894 13.8578 79.2996 12.2882 81.3093 11.7523C82.3621 11.4843 83.032 11.5609 84.1804 12.0968ZM35.9843 29.7445C38.5492 31.0078 38.8554 34.8742 36.5203 36.5585C34.4339 38.0706 31.5246 37.4007 30.4335 35.123C29.2851 32.7496 30.5292 30.0316 33.0749 29.3617C34.1468 29.0937 34.8359 29.1703 35.9843 29.7445ZM26.2226 35.4675C26.2226 35.6015 26.4906 36.2523 26.816 36.9222C27.5624 38.4343 29.0937 39.9847 30.4527 40.5781L31.4863 41.0374L31.4289 47.8324C31.3714 53.8425 31.5437 59.0296 31.9074 61.8624L32.0222 62.7812H19.064H6.12495L5.95268 62.341C5.49331 61.1351 4.57456 56.8667 4.28745 54.6464C3.84721 51.1054 3.88549 46.1863 4.40229 42.6835C4.7851 40.0804 5.47417 36.9222 5.9144 35.7355L6.12495 35.2187H16.1738C24.1554 35.2187 26.2226 35.2761 26.2226 35.4675ZM62.0921 36.214C62.4367 39.1234 62.6089 43.4492 62.6089 49.4019C62.6089 53.0386 62.5515 56.1585 62.475 56.3308C62.4175 56.5031 61.9964 56.7519 61.5562 56.8667C59.2402 57.4792 56.8285 59.7761 56.082 62.0539L55.8523 62.7812H45.9375H36.0226L35.9078 61.7667C35.5632 58.8191 35.4101 54.321 35.4101 48.4257C35.4292 44.789 35.4484 41.7074 35.4484 41.5734C35.4675 41.4394 35.6972 41.2863 35.9652 41.2097C38.6066 40.5781 40.8843 38.4917 41.7074 35.9269L41.9562 35.2187H51.9667H61.9773L62.0921 36.214ZM92.698 38.0324C93.6167 41.8031 93.9996 45.0187 93.9996 49.1531C93.9996 53.8425 93.4636 57.4984 92.1812 61.8242L91.9324 62.6855L81.7496 62.7429C72.8875 62.7812 71.5859 62.7429 71.5859 62.4941C71.5859 62.341 71.3753 61.7285 71.0882 61.1542C70.4949 59.8144 68.6957 57.996 67.4324 57.4218L66.5136 56.9816V49.2105C66.5136 42.0136 66.3988 38.4152 66.1117 36.1183L65.9777 35.2187H78.9933H91.9898L92.698 38.0324ZM65.5566 61.0203C68.6765 62.5515 68.5808 67.0878 65.3843 68.4277C62.7238 69.5378 59.6996 67.5472 59.7378 64.6953C59.757 63.5277 60.0824 62.6855 60.8671 61.9007C62.1687 60.5609 63.9488 60.2164 65.5566 61.0203ZM32.4242 67.0304C32.4816 67.2792 32.7304 68.8105 33.0175 70.4374C33.898 75.7394 35.0464 80.3714 36.4628 84.3144C37.2859 86.6304 39.3148 90.8222 40.2718 92.2003C40.6546 92.7554 40.9609 93.2531 40.9609 93.3105C40.9609 93.6359 34.6828 91.8558 32.0605 90.7839C28.9406 89.5015 23.1601 86.2476 23.1601 85.7882C23.1601 85.6925 23.2941 85.1566 23.4664 84.5824C23.9257 83.032 23.7535 80.448 23.0835 78.9742C22.1074 76.8113 20.7484 75.548 18.4707 74.7249C16.9968 74.189 14.5468 74.1124 13.3027 74.5527C12.8816 74.7058 12.4222 74.8398 12.3074 74.8398C11.848 74.8398 9.41714 70.7628 7.80932 67.3175L7.48393 66.6093H19.9062H32.3476L32.4242 67.0304ZM56.1777 67.5089C56.3691 68.0257 56.7136 68.7339 56.9625 69.1167C57.4792 69.9589 59.1636 71.4902 60.0058 71.8921L60.6183 72.1792L60.2546 73.921C58.8765 80.5054 56.5988 86.707 54.2828 90.0566C50.1101 96.1433 46.2246 95.2246 42.1093 87.1855C40.5398 84.1421 39.1617 80.046 37.9367 74.7441C37.3624 72.3324 36.5585 67.7578 36.5585 66.9921C36.5585 66.6093 36.7308 66.6093 46.2054 66.6093H55.8332L56.1777 67.5089ZM90.1906 67.3175C89.98 67.7195 89.6546 68.3894 89.4632 68.8105C88.4679 71.0117 85.482 75.6437 83.7976 77.6152C82.2472 79.4144 78.5339 83.0703 76.907 84.3527C71.7007 88.4871 65.2312 91.5687 58.7234 93.0042C57.7855 93.1956 57.039 93.3296 57.039 93.2722C57.039 93.2339 57.3835 92.698 57.8046 92.0855C59.0871 90.1714 60.8863 86.305 61.9199 83.166C62.9535 80.1035 64.5039 73.9785 64.5039 73.0406C64.5039 72.8492 64.657 72.7343 64.9441 72.7343C65.1738 72.7343 65.9011 72.5429 66.571 72.3132C68.7339 71.5476 70.8203 69.4613 71.4136 67.4898L71.6625 66.6093H81.0988H90.5351L90.1906 67.3175ZM17.6093 78.7445C18.8343 79.357 19.5808 80.4671 19.6765 81.9027C19.7148 82.5152 19.6574 83.3574 19.5234 83.7402C19.1597 84.8312 18.0113 85.8648 16.748 86.2285C15.7718 86.5156 15.6187 86.5156 14.6425 86.2285C10.5656 85.0609 10.6421 79.4335 14.7191 78.3617C15.7718 78.0937 16.4609 78.1894 17.6093 78.7445Z" />
</svg>
