<svg width="98" height="90" viewBox="0 0 98 90" xmlns="http://www.w3.org/2000/svg">
<path d="M3.63672 0.95742C2.08633 1.43594 0.823047 2.52695 0.229688 3.90508C0.0574219 4.30703 0 12.6715 0 40.0426C0 71.5672 0.0382813 75.7207 0.287109 76.3332C0.784766 77.5008 1.43555 78.1898 2.60313 78.7832L3.73242 79.3574H30.759H57.7664L58.2641 78.898C58.9148 78.2855 58.9531 77.2137 58.3215 76.6203L57.8813 76.1992L31.0652 76.1609L4.24922 76.1035L3.75156 75.6441L3.25391 75.1848V46.2059V17.2461H33.477C51.3352 17.2461 63.9105 17.1695 64.1785 17.0738C64.9441 16.7867 65.2695 16.3082 65.2695 15.5043C65.2695 15.0066 65.1355 14.6238 64.8867 14.375C64.5039 13.9922 64.2551 13.9922 33.8789 13.9922H3.25391V9.51328V5.03437L3.84727 4.53672L4.44063 4.03906L44.2531 4.07734L84.0656 4.13476L84.525 4.6707C84.9844 5.20664 84.9844 5.22578 84.9844 9.60898V13.9922H82.209C79.491 13.9922 79.3953 14.0113 78.9551 14.4707C78.1512 15.2555 78.3809 16.423 79.4336 16.959C79.8355 17.1695 80.6395 17.2461 82.4961 17.2461H84.9844V33.018V48.809L85.4438 49.3258C86.0754 50.0723 87.1473 50.0723 87.7789 49.3258L88.2383 48.809L88.2 26.4719L88.1426 4.13476L87.6258 3.2543C86.975 2.20156 85.7691 1.30195 84.5633 1.01484C83.5297 0.746873 4.45977 0.708592 3.63672 0.95742Z"     />
<path d="M7.71367 7.46531C6.90977 7.695 6.50781 8.19265 6.50781 8.99656C6.50781 9.58992 6.62266 9.83875 7.00547 10.145C8.575 11.37 10.6422 9.43679 9.34063 7.98211C8.84297 7.44617 8.32617 7.2739 7.71367 7.46531Z"     />
<path d="M14.0491 7.48437C12.4605 8.13516 12.8433 10.5469 14.5468 10.5469C15.4655 10.5469 16.0589 10.0684 16.1929 9.18789C16.3843 8.02031 15.121 7.025 14.0491 7.48437Z"     />
<path d="M20.5379 7.48448C19.9828 7.71417 19.466 8.74777 19.6 9.32198C19.8871 10.4704 21.3035 10.9107 22.2797 10.145C23.141 9.45597 22.8348 7.8673 21.7629 7.48448C21.093 7.2548 21.093 7.2548 20.5379 7.48448Z"     />
<path d="M27.0649 7.56094C25.993 8.03945 25.8207 9.83867 26.7969 10.3555C27.0266 10.4703 36.8266 10.5469 53.9383 10.5469C79.9504 10.5469 80.7352 10.5277 81.1754 10.1832C81.7879 9.68555 81.8071 8.42227 81.1946 7.82891L80.7543 7.38867L54.2063 7.35039C32.1563 7.31211 27.5625 7.35039 27.0649 7.56094Z"     />
<path d="M69.1359 14.4324C68.4086 15.2172 68.6383 16.4996 69.5761 16.9399C70.38 17.3227 73.2511 17.361 74.1508 16.9781C74.9929 16.6336 75.3566 15.7531 75.0312 14.9492C74.8972 14.6238 74.6293 14.2793 74.4379 14.1836C74.2465 14.0688 73.0789 13.9922 71.8156 13.9922C69.691 13.9922 69.5187 14.0113 69.1359 14.4324Z"     />
<path d="M17.0352 25.4766C15.4274 25.8212 14.2216 26.7208 13.4751 28.1563C12.9583 29.1516 12.9774 31.4485 13.5325 32.4821C14.3938 34.0899 16.0016 35.0852 17.8009 35.1235C20.5954 35.1618 22.7774 32.9989 22.7774 30.147C22.7774 27.2567 19.8489 24.8833 17.0352 25.4766ZM18.7005 28.922C19.3704 29.3239 19.6384 29.9747 19.4469 30.7403C19.2938 31.372 18.2411 32.0227 17.6094 31.8888C17.3415 31.8313 16.9395 31.5634 16.7098 31.2954C15.9442 30.4532 16.2122 29.2856 17.2841 28.8263C18.0688 28.4817 17.9923 28.4817 18.7005 28.922Z"     />
<path d="M27.2755 25.4191C25.9931 25.7445 25.706 27.2184 26.7204 28.2328C26.9884 28.5008 29.3618 28.5391 50.5314 28.5391C63.4704 28.5391 74.1892 28.4816 74.3614 28.4242C74.8399 28.2328 75.261 27.2375 75.1271 26.625C75.0696 26.3379 74.8399 25.9359 74.6103 25.7445C74.2466 25.4 73.3278 25.3809 50.9333 25.3617C38.1282 25.3426 27.486 25.3617 27.2755 25.4191Z"     />
<path d="M26.7012 32.3098C26.1844 32.8074 26.0313 33.4391 26.2418 34.0898C26.5672 34.9895 27.2563 35.2383 29.3809 35.2383C31.85 35.2383 32.5199 34.8555 32.5391 33.4773C32.5391 32.9414 32.4242 32.6926 32.0414 32.3863C31.582 32.0227 31.2758 31.9844 29.266 31.9844C27.4285 31.9844 26.95 32.0418 26.7012 32.3098Z"     />
<path d="M36.4054 32.4247C35.6781 33.1903 35.9078 34.4919 36.8457 34.9895C37.3625 35.2575 40.7504 35.3149 41.382 35.0661C42.0519 34.8173 42.5304 33.8985 42.3773 33.152C42.1668 32.1759 41.65 31.9845 39.0851 31.9845C36.9605 31.9845 36.7883 32.0036 36.4054 32.4247Z"     />
<path d="M46.1481 32.482C45.6121 33.152 45.6504 33.9559 46.2055 34.6066C46.6648 35.1426 46.684 35.1426 49 35.1426C51.316 35.1426 51.3352 35.1426 51.7945 34.6066C52.3496 33.9559 52.3879 33.152 51.852 32.482C51.4691 31.9844 51.4309 31.9844 49 31.9844C46.5691 31.9844 46.5309 31.9844 46.1481 32.482Z"     />
<path d="M16.3845 41.9375C13.4943 42.8562 12.1353 46.4929 13.6857 49.1344C15.5423 52.3117 20.2509 52.2926 22.1267 49.1152C23.5048 46.7609 22.5286 43.4879 20.0786 42.2054C19.3321 41.8226 17.2075 41.6695 16.3845 41.9375ZM18.6239 45.2297C19.6767 45.7847 19.8298 46.8375 18.9685 47.6988C18.2411 48.4261 17.5521 48.4261 16.8247 47.6988C16.1357 47.0097 16.1165 46.359 16.7673 45.5933C17.3032 44.9617 17.9157 44.8469 18.6239 45.2297Z"     />
<path d="M26.5863 42.3012C25.8781 43.0094 25.8781 43.641 26.5863 44.4066L27.1414 45H50.627H74.1125L74.6676 44.4449C75.2801 43.8324 75.3184 43.5836 75.0313 42.7797C74.6102 41.7078 76.0457 41.7652 50.6652 41.7461H27.1414L26.5863 42.3012Z"     />
<path d="M26.9309 48.4645C26.4907 48.7133 26.0313 49.632 26.127 50.0914C26.1653 50.2828 26.2036 50.5125 26.2036 50.5891C26.2227 50.6656 26.4141 50.8953 26.6438 51.125C27.0075 51.4695 27.3137 51.5078 29.3809 51.5078C31.563 51.5078 31.7352 51.4887 32.118 51.0676C32.7305 50.4168 32.6923 49.3258 32.0415 48.7324C31.563 48.2922 31.3907 48.2539 29.4001 48.2539C28.2325 48.2539 27.1223 48.3496 26.9309 48.4645Z"     />
<path d="M36.4629 48.7324C35.7738 49.4023 35.793 50.5699 36.482 51.1059C36.9414 51.4695 37.2477 51.5078 39.2574 51.5078C41.0949 51.5078 41.5734 51.4504 41.8223 51.1824C42.6262 50.3977 42.607 49.2875 41.784 48.6367C41.3629 48.3113 40.9992 48.2539 39.1043 48.2539C37.0371 48.2539 36.9031 48.273 36.4629 48.7324Z"     />
<path d="M46.5117 48.5794C46.2438 48.7516 45.9758 49.0005 45.8992 49.0962C45.6313 49.479 45.7461 50.5126 46.1098 50.9528C46.4543 51.3739 46.6266 51.4122 48.7512 51.4696C51.316 51.527 51.852 51.3547 52.1199 50.4169C52.5793 48.8282 51.718 48.254 48.866 48.254C47.4113 48.254 46.8754 48.3305 46.5117 48.5794Z"     />
<path d="M77.0985 53.422C71.2224 54.4938 66.3989 58.2071 63.8149 63.6431C62.6474 66.1122 62.188 68.2368 62.188 71.0313C62.188 73.6153 62.2454 74.1513 62.9153 76.3907C64.4083 81.4821 68.2364 85.7313 73.2321 87.7985C80.9075 90.9759 89.6356 88.5259 94.5548 81.8458C96.9665 78.5727 98.0001 75.3763 98.0001 71.1653C97.981 66.0356 96.1435 61.6716 92.5642 58.2645C90.2673 56.0634 88.047 54.7618 85.0419 53.8813C83.6829 53.4794 82.8599 53.3837 80.6778 53.3263C79.204 53.288 77.5962 53.3263 77.0985 53.422ZM82.9173 56.7524C86.3435 57.4032 89.3677 59.2981 91.8177 62.2841C92.7173 63.3751 93.9423 65.9782 94.3634 67.6626C94.8802 69.7298 94.8802 72.9263 94.3825 74.7638C92.5833 81.1759 87.4153 85.4442 80.8692 85.8845C75.2228 86.2673 69.3466 82.8028 66.8966 77.6731C64.638 72.888 64.9634 67.586 67.7771 63.1645C69.9591 59.7575 73.8446 57.2309 77.9024 56.6184C79.0509 56.427 81.6157 56.5036 82.9173 56.7524Z"     />
<path d="M78.955 61.9395C78.4765 62.3989 78.4765 62.4372 78.4765 65.9399V69.4809L74.8206 69.5383L71.1647 69.5958L70.6862 70.1508C70.3034 70.6102 70.2268 70.8399 70.3225 71.395C70.514 72.6583 70.8393 72.754 74.8972 72.754H78.4765V76.3715C78.4765 80.5059 78.553 80.7356 79.912 80.927C80.5628 81.0036 80.7542 80.9462 81.2136 80.5059L81.7304 79.97V76.3715V72.754H85.3671C88.7358 72.754 89.0229 72.7348 89.3866 72.3712C90.2479 71.5098 90.0182 70.2274 88.9081 69.7872C88.4296 69.5766 87.4151 69.5001 84.9843 69.5001H81.7304V65.9782C81.7304 62.7243 81.7112 62.4372 81.3284 61.9587C80.7925 61.2696 79.6249 61.2505 78.955 61.9395Z"     />
<path d="M17.0161 58.2261C15.8485 58.3984 15.1212 58.8004 14.3556 59.6617C13.3411 60.8293 12.9583 61.9011 13.054 63.2793C13.2454 65.4422 14.5853 67.1265 16.6524 67.7199C20.4806 68.83 24.0216 64.7148 22.3755 61.0781C21.4185 58.9726 19.3704 57.8816 17.0161 58.2261ZM19.2364 62.0925C19.8106 62.9156 19.5044 63.93 18.5474 64.4468C17.0544 65.2125 15.5997 63.3175 16.6524 61.9777C17.2841 61.1738 18.6431 61.2312 19.2364 62.0925Z"     />
<path d="M27.4668 58.1498C27.2562 58.1881 26.8734 58.3795 26.6054 58.59C25.9546 59.0877 25.9355 60.3892 26.5863 60.906C27.0074 61.2506 27.6199 61.2697 43.2578 61.2697C61.4031 61.2697 60.1781 61.3654 60.4078 59.9107C60.5035 59.3556 60.4269 59.126 60.0441 58.6666L59.5656 58.1115L43.698 58.0924C34.989 58.0732 27.6773 58.0924 27.4668 58.1498Z"     />
<path d="M26.7586 64.9828C25.8781 65.6336 25.9547 67.0309 26.8734 67.6051C27.3328 67.8922 27.8305 67.9688 29.2086 67.9688C31.8691 67.9688 32.5391 67.6051 32.5391 66.1887C32.5391 65.7676 32.3859 65.4039 32.0988 65.1359C31.6969 64.7531 31.448 64.7148 29.3617 64.7148C27.7922 64.734 26.9883 64.8105 26.7586 64.9828Z"     />
<path d="M36.4628 65.1935C35.8503 65.806 35.812 66.8396 36.4054 67.3755C36.9605 67.8923 37.7644 68.0263 39.8316 67.9306C41.8988 67.8349 42.3964 67.5095 42.3964 66.2271C42.3964 64.9255 41.9562 64.715 39.1999 64.715C37.037 64.715 36.9031 64.7341 36.4628 65.1935Z"     />
<path d="M46.1481 65.2125C45.6121 65.8824 45.6504 66.6863 46.2055 67.3371C46.6648 67.873 46.684 67.873 49 67.873C51.316 67.873 51.3352 67.873 51.7945 67.3371C52.3879 66.6289 52.3879 65.7867 51.7754 65.1934C51.3352 64.734 51.2012 64.7148 48.9234 64.7148C46.5691 64.7148 46.5309 64.7148 46.1481 65.2125Z"     />
</svg>
